#!OML:ASF F:\VICON\USERDATA\INSTALL\rory3\rory3.ASF
:FULLY-SPECIFIED
:DEGREES
775
root 1.8975 16.6201 22.2284 399.065 26.3156 -358.163
lowerback -17.1202 -6.25675 9.56586
upperback -15.1216 -9.12948 3.53381
thorax -8.03207 -5.27136 -2.22731
lowerneck 2.97776 -19.5855 -18.1246
upperneck 1.58155 -27.803 20.2395
head 5.39345 -13.8379 6.63629
rclavicle 4.51179e-014 -2.34566e-014
rhumerus -33.9367 -384.513 -417.728
rradius 24.1624
rwrist -1.38912
rhand 5.23027 11.2851
rfingers 7.12502
rthumb 30.5896 -16.1938
lclavicle 4.51179e-014 -2.34566e-014
lhumerus -27.8108 6.96727 72.3138
lradius 27.3874
lwrist -23.5207
lhand 9.3906 14.1744
lfingers 7.12502
lthumb 34.5481 40.8348
rfemur -64.6502 8.72051 378.015
rtibia 42.2721
rfoot 131.67 142.166
rtoes 40.3499
lfemur -23.8822 -2.3416 -20.1197
ltibia 38.0587
lfoot -222.132 -156.695
ltoes 43.7569
776
root 1.90314 16.612 22.2273 399.066 25.9451 -358.268
lowerback -16.9794 -6.158 9.49302
upperback -15.1895 -8.97023 3.59074
thorax -8.14118 -5.18568 -2.09505
lowerneck 2.97365 -19.554 -18.124
upperneck 1.74067 -27.7626 20.0642
head 5.40648 -13.8161 6.59004
rclavicle 7.90355e-014 1.51076e-014
rhumerus -34.2149 -384.001 -418.21
rradius 24.231
rwrist -1.87949
rhand 6.53779 10.2609
rfingers 7.12502
rthumb 31.8356 -16.9779
lclavicle 7.90355e-014 1.51076e-014
lhumerus -28.8106 7.37531 72.9714
lradius 27.3435
lwrist -23.4293
lhand 9.64652 13.9825
lfingers 7.12502
lthumb 34.791 40.5871
rfemur -64.7833 8.98271 377.906
rtibia 42.2995
rfoot 131.965 141.997
rtoes 40.2304
lfemur -23.917 -1.97212 -20.292
ltibia 38.024
lfoot -222.648 -157.812
ltoes 45.0719
777
root 1.9141 16.6077 22.229 398.944 25.9002 -358.595
lowerback -17.0468 -6.06359 9.84364
upperback -15.062 -8.89788 3.68131
thorax -8.0003 -5.16803 -2.19916
lowerneck 2.90774 -19.5617 -18.0039
upperneck 1.67634 -27.7437 20.0269
head 5.37133 -13.8047 6.56682
rclavicle -5.19791e-014 6.75868e-015
rhumerus -34.2756 -383.709 -418.866
rradius 24.3032
rwrist -2.48948
rhand 7.64154 9.68861
rfingers 7.12502
rthumb 32.8861 -17.3356
lclavicle -5.19791e-014 6.75868e-015
lhumerus -29.4665 7.97139 73.4777
lradius 27.2758
lwrist -23.5006
lhand 10.1752 14.0369
lfingers 7.12502
lthumb 35.2925 40.5241
rfemur -64.7126 8.5691 378.779
rtibia 42.3069
rfoot 133.05 141.919
rtoes 39.4314
lfemur -23.9507 -1.20882 -20.0982
ltibia 38.0153
lfoot -222.766 -158.63
ltoes 46.611
778
root 1.93194 16.6069 22.2306 398.767 25.9778 -358.801
lowerback -17.0901 -6.02452 10.2559
upperback -14.8628 -8.9121 3.72873
thorax -7.81906 -5.19832 -2.38977
lowerneck 3.07465 -19.578 -17.8628
upperneck 1.13508 -27.7221 20.2471
head 5.19242 -13.8156 6.65568
rclavicle -2.97245e-014 -3.77691e-014
rhumerus -34.2205 -383.482 -419.595
rradius 24.2508
rwrist -3.0342
rhand 8.32085 9.48363
rfingers 7.12502
rthumb 33.532 -17.4028
lclavicle -2.97245e-014 -3.77691e-014
lhumerus -30.0886 8.66427 73.8937
lradius 27.3895
lwrist -23.5749
lhand 11.1077 14.4884
lfingers 7.12502
lthumb 36.1762 40.7614
rfemur -64.5244 7.98984 379.52
rtibia 42.2857
rfoot 133.993 142
rtoes 38.9803
lfemur -23.9204 -0.421522 -19.94
ltibia 38.0709
lfoot -221.787 -157.052
ltoes 46.4736
779
root 1.95017 16.6067 22.2267 398.475 26.1939 -359.12
lowerback -16.9641 -5.98391 10.8261
upperback -14.7225 -8.91639 3.79577
thorax -7.82617 -5.2418 -2.60863
lowerneck 3.36439 -19.5566 -17.777
upperneck 0.556366 -27.6614 20.4787
head 4.98567 -13.8169 6.77606
rclavicle 5.33861e-014 -1.55052e-014
rhumerus -34.1223 -383.191 -420.267
rradius 23.8573
rwrist -3.5494
rhand 8.76816 9.42614
rfingers 7.12502
rthumb 33.9571 -17.3671
lclavicle 5.33861e-014 -1.55052e-014
lhumerus -30.7325 9.44624 74.1852
lradius 27.3329
lwrist -24.067
lhand 11.7033 14.1862
lfingers 7.12502
lthumb 36.7401 40.3174
rfemur -64.2933 7.12619 380.602
rtibia 42.2904
rfoot 135.572 142.016
rtoes 38.1115
lfemur -23.7954 -0.252111 -19.5718
ltibia 38.1282
lfoot -220.993 -155.523
ltoes 45.5349
780
root 1.96041 16.6063 22.2221 398.327 26.1393 -359.221
lowerback -16.7144 -5.97039 10.9993
upperback -14.7461 -8.88511 3.82614
thorax -8.01285 -5.24612 -2.62599
lowerneck 3.71369 -19.4742 -17.8514
upperneck 0.310351 -27.5662 20.5467
head 4.85957 -13.7982 6.86856
rclavicle 7.94517e-014 3.26007e-014
rhumerus -34.3322 -382.934 -420.711
rradius 23.546
rwrist -3.80013
rhand 9.15418 9.45962
rfingers 7.12502
rthumb 34.3237 -17.2517
lclavicle 7.94517e-014 3.26007e-014
lhumerus -31.5414 9.98358 74.498
lradius 27.1608
lwrist -24.7615
lhand 12.1577 13.3954
lfingers 7.12502
lthumb 37.1698 39.4158
rfemur -64.2003 6.48853 381.257
rtibia 42.381
rfoot 136.641 142.296
rtoes 37.6917
lfemur -23.6734 -0.49817 -19.5105
ltibia 38.1325
lfoot -220.735 -154.797
ltoes 45.1274
781
root 1.9679 16.6031 22.2177 398.22 25.8634 -359.161
lowerback -16.8363 -5.94068 10.8432
upperback -14.4157 -8.8762 3.78136
thorax -7.53034 -5.20531 -2.65251
lowerneck 3.72358 -19.4999 -17.7686
upperneck -0.155808 -27.5494 20.8123
head 4.74639 -13.8019 6.95451
rclavicle 5.0218e-014 -1.55052e-014
rhumerus -34.164 -382.918 -421.42
rradius 23.5517
rwrist -4.03636
rhand 9.7027 9.37324
rfingers 7.12502
rthumb 34.8443 -17.219
lclavicle 5.0218e-014 -1.55052e-014
lhumerus -31.6721 10.4709 74.8824
lradius 26.9304
lwrist -25.1793
lhand 12.5766 13.2281
lfingers 7.12502
lthumb 37.5658 39.1442
rfemur -64.1421 6.0393 381.561
rtibia 42.5187
rfoot 137.454 142.581
rtoes 37.4857
lfemur -23.5085 -0.424882 -19.7253
ltibia 38.1121
lfoot -220.216 -153.814
ltoes 44.5284
782
root 1.97039 16.5984 22.2059 398.245 25.5106 -359.003
lowerback -16.3492 -5.94658 10.5989
upperback -14.6451 -8.78339 3.76185
thorax -8.0001 -5.16132 -2.45137
lowerneck 4.17868 -19.4469 -17.7311
upperneck -0.323579 -27.4916 20.6084
head 4.57457 -13.8059 6.96446
rclavicle 6.92019e-014 4.37326e-015
rhumerus -34.7179 -382.214 -421.783
rradius 23.6419
rwrist -4.28419
rhand 10.1591 9.31285
rfingers 7.12502
rthumb 35.2772 -17.178
lclavicle 6.92019e-014 4.37326e-015
lhumerus -32.5878 10.5636 75.3556
lradius 26.8599
lwrist -25.0268
lhand 13.0593 13.6372
lfingers 7.12502
lthumb 38.0219 39.4304
rfemur -64.2705 5.95716 381.399
rtibia 42.6825
rfoot 137.54 142.855
rtoes 37.6984
lfemur -23.4267 -0.361922 -20.0489
ltibia 38.0649
lfoot -220.815 -154.649
ltoes 45.3226
783
root 1.97006 16.5952 22.1916 398.35 25.059 -358.73
lowerback -16.1728 -6.00218 10.0706
upperback -14.6437 -8.78583 3.77691
thorax -7.9805 -5.11553 -2.14462
lowerneck 4.3457 -19.4361 -17.6482
upperneck -0.494279 -27.4516 20.44
head 4.45095 -13.8009 6.94395
rclavicle 7.483e-014 4.13472e-014
rhumerus -34.7982 -382.132 -422.135
rradius 23.5927
rwrist -3.92268
rhand 10.507 9.46245
rfingers 7.12502
rthumb 35.607 -16.9497
lclavicle 7.483e-014 4.13472e-014
lhumerus -33.0399 10.4988 76.0275
lradius 26.9076
lwrist -24.6912
lhand 13.3214 14.1204
lfingers 7.12502
lthumb 38.2694 39.8458
rfemur -64.4536 6.13287 380.873
rtibia 42.8018
rfoot 137.348 142.897
rtoes 37.7554
lfemur -23.4143 -0.476754 -20.5197
ltibia 38.0565
lfoot -221.479 -155.308
ltoes 46.1021
784
root 1.9731 16.5911 22.185 398.374 24.7357 -358.561
lowerback -15.2555 -5.92888 10.0002
upperback -15.3148 -8.53476 3.60835
thorax -9.26007 -5.04637 -2.07197
lowerneck 5.24428 -19.3657 -17.9423
upperneck -0.0319729 -27.5299 19.9973
head 4.43035 -13.8807 6.92184
rclavicle -1.62103e-014 -3.57812e-015
rhumerus -36.3231 -381.668 -421.835
rradius 23.6009
rwrist -3.58859
rhand 10.9432 9.83266
rfingers 7.12502
rthumb 36.0204 -16.4788
lclavicle -1.62103e-014 -3.57812e-015
lhumerus -34.6107 9.90184 76.5256
lradius 26.5938
lwrist -24.5902
lhand 13.1035 14.0676
lfingers 7.12502
lthumb 38.0636 39.8495
rfemur -64.5133 6.13144 380.654
rtibia 42.8583
rfoot 137.778 142.723
rtoes 37.2586
lfemur -23.3999 -0.400119 -20.8421
ltibia 38.1159
lfoot -221.395 -155.219
ltoes 46.0344
785
root 1.98039 16.5933 22.1798 398.201 24.823 -358.784
lowerback -15.5688 -5.94069 10.1951
upperback -14.844 -8.63712 3.70827
thorax -8.56084 -5.07807 -2.16915
lowerneck 4.69519 -19.4459 -17.7294
upperneck -0.230914 -27.5253 20.0791
head 4.4407 -13.8514 6.86974
rclavicle 3.26255e-014 -3.45885e-014
rhumerus -35.6508 -382.406 -422.285
rradius 23.2289
rwrist -2.89033
rhand 11.4443 10.3059
rfingers 7.12502
rthumb 36.4949 -15.8874
lclavicle 3.26255e-014 -3.45885e-014
lhumerus -34.1862 9.91251 77.1855
lradius 26.0966
lwrist -24.2245
lhand 12.6588 14.0106
lfingers 7.12502
lthumb 37.6435 39.9059
rfemur -64.4323 6.11775 380.938
rtibia 42.8672
rfoot 137.997 142.537
rtoes 37.044
lfemur -23.3975 -0.176392 -20.6097
ltibia 38.2105
lfoot -220.488 -154.157
ltoes 45.1536
786
root 1.99171 16.6004 22.1714 398.015 25.0697 -359.069
lowerback -15.643 -5.99144 10.6307
upperback -14.5337 -8.77663 3.83649
thorax -8.23641 -5.16097 -2.30792
lowerneck 4.20143 -19.4995 -17.4847
upperneck -0.280883 -27.502 20.0034
head 4.45423 -13.8133 6.77621
rclavicle 6.9674e-014 -3.06128e-014
rhumerus -35.1949 -382.906 -422.75
rradius 23.147
rwrist -2.23521
rhand 11.9832 10.4537
rfingers 7.12502
rthumb 37.0048 -15.6096
lclavicle 6.9674e-014 -3.06128e-014
lhumerus -34.0393 10.063 77.6857
lradius 25.7871
lwrist -24.0365
lhand 12.5173 14.1223
lfingers 7.12502
lthumb 37.5098 40.0533
rfemur -64.319 5.594 381.758
rtibia 42.9017
rfoot 138.75 142.517
rtoes 36.2147
lfemur -23.4234 -0.0139362 -20.2541
ltibia 38.2568
lfoot -218.953 -152.179
ltoes 44.0525
787
root 1.99914 16.5998 22.1697 398.068 24.8948 -359.024
lowerback -15.7895 -6.0294 10.5419
upperback -14.3908 -8.85072 3.84514
thorax -7.9782 -5.17935 -2.29424
lowerneck 4.19869 -19.4569 -17.3157
upperneck -0.447319 -27.4106 20.0224
head 4.36888 -13.7736 6.78839
rclavicle 3.95706e-014 1.51076e-014
rhumerus -35.006 -383.042 -423.231
rradius 23.2108
rwrist -1.862
rhand 12.2681 9.92941
rfingers 7.12502
rthumb 37.2743 -16.0636
lclavicle 3.95706e-014 1.51076e-014
lhumerus -34.0531 10.1126 78.1288
lradius 25.3129
lwrist -24.0817
lhand 12.3474 14.1887
lfingers 7.12502
lthumb 37.3492 40.1621
rfemur -64.4096 5.56106 381.717
rtibia 42.964
rfoot 139.073 142.32
rtoes 35.7174
lfemur -23.4418 0.0428758 -20.3834
ltibia 38.2419
lfoot -217.7 -150.814
ltoes 43.1492
788
root 1.99914 16.5911 22.1691 398.282 24.2847 -358.607
lowerback -15.9623 -6.04225 9.8268
upperback -14.2726 -8.83372 3.72561
thorax -7.61966 -5.10468 -2.09477
lowerneck 4.18503 -19.4931 -17.2327
upperneck -0.54232 -27.4384 20.0136
head 4.3348 -13.7892 6.77531
rclavicle 8.3092e-014 7.79236e-014
rhumerus -34.8015 -383.427 -423.523
rradius 22.9804
rwrist -1.4646
rhand 12.3518 9.94028
rfingers 7.12502
rthumb 37.3534 -16.032
lclavicle 8.3092e-014 7.79236e-014
lhumerus -34.1207 9.93071 78.6594
lradius 25.0949
lwrist -24.0256
lhand 12.5899 14.2953
lfingers 7.12502
lthumb 37.5784 40.208
rfemur -64.6351 6.07769 380.719
rtibia 43.0792
rfoot 138.57 142.242
rtoes 36.2294
lfemur -23.3021 -0.257632 -21.0128
ltibia 38.1388
lfoot -218.241 -151.832
ltoes 43.7735
